<mxfile host="app.diagrams.net" modified="2022-10-05T20:55:29.679Z" agent="5.0 (Macintosh)" etag="AqpCwbK6ZEnp8jGs1o1l" version="20.4.0" type="github">
  <diagram id="Fw-TrTKJBdcjvCgb3gfK" name="Page-1">
    <mxGraphModel dx="1234" dy="682" grid="1" gridSize="10" guides="1" tooltips="1" connect="1" arrows="1" fold="1" page="1" pageScale="1" pageWidth="850" pageHeight="1100" math="0" shadow="0">
      <root>
        <mxCell id="0" />
        <mxCell id="1" parent="0" />
        <mxCell id="mA-d0tsaracJnLabo0LD-4" value="deployment BudgetAPI" style="shape=umlFrame;whiteSpace=wrap;html=1;width=120;height=30;boundedLbl=1;verticalAlign=middle;align=left;spacingLeft=5;" vertex="1" parent="1">
          <mxGeometry x="100" y="220" width="530" height="270" as="geometry" />
        </mxCell>
        <mxCell id="mA-d0tsaracJnLabo0LD-7" style="edgeStyle=orthogonalEdgeStyle;rounded=0;orthogonalLoop=1;jettySize=auto;html=1;entryX=0.429;entryY=1;entryDx=0;entryDy=0;entryPerimeter=0;curved=1;" edge="1" parent="1" source="mA-d0tsaracJnLabo0LD-2" target="mA-d0tsaracJnLabo0LD-5">
          <mxGeometry relative="1" as="geometry" />
        </mxCell>
        <mxCell id="mA-d0tsaracJnLabo0LD-8" value="&lt;div&gt;&amp;lt;&amp;lt;protocol&amp;gt;&amp;gt;&lt;/div&gt;&lt;div&gt;TCP/IP&lt;br&gt;&lt;/div&gt;" style="edgeLabel;html=1;align=center;verticalAlign=middle;resizable=0;points=[];" vertex="1" connectable="0" parent="mA-d0tsaracJnLabo0LD-7">
          <mxGeometry x="-0.1493" y="4" relative="1" as="geometry">
            <mxPoint as="offset" />
          </mxGeometry>
        </mxCell>
        <mxCell id="mA-d0tsaracJnLabo0LD-2" value="&lt;div&gt;&amp;lt;&amp;lt;application server&amp;gt;&amp;gt;&lt;/div&gt;&lt;div&gt;FastAPI&lt;/div&gt;" style="verticalAlign=top;align=left;shape=cube;size=10;direction=south;fontStyle=0;html=1;boundedLbl=1;spacingLeft=5;" vertex="1" parent="1">
          <mxGeometry x="180" y="280" width="150" height="140" as="geometry" />
        </mxCell>
        <mxCell id="mA-d0tsaracJnLabo0LD-3" value="&amp;lt;&amp;lt;component&amp;gt;&amp;gt;&lt;br&gt;&lt;div&gt;BudgetAPI&lt;/div&gt;" style="verticalAlign=top;align=center;shape=cube;size=10;direction=south;html=1;boundedLbl=1;spacingLeft=5;" vertex="1" parent="mA-d0tsaracJnLabo0LD-2">
          <mxGeometry width="100" height="80" relative="1" as="geometry">
            <mxPoint x="20" y="50" as="offset" />
          </mxGeometry>
        </mxCell>
        <mxCell id="mA-d0tsaracJnLabo0LD-5" value="&lt;div&gt;&amp;lt;&amp;lt;database system&amp;gt;&amp;gt;&lt;/div&gt;&lt;div&gt;Postgresql Server&lt;/div&gt;" style="verticalAlign=top;align=left;shape=cube;size=10;direction=south;fontStyle=0;html=1;boundedLbl=1;spacingLeft=5;" vertex="1" parent="1">
          <mxGeometry x="420" y="250" width="150" height="140" as="geometry" />
        </mxCell>
        <mxCell id="mA-d0tsaracJnLabo0LD-6" value="&lt;div&gt;&amp;lt;&amp;lt;schema&amp;gt;&amp;gt;&lt;/div&gt;&lt;div&gt;Budget&lt;/div&gt;" style="verticalAlign=top;align=center;shape=cube;size=10;direction=south;html=1;boundedLbl=1;spacingLeft=5;" vertex="1" parent="mA-d0tsaracJnLabo0LD-5">
          <mxGeometry width="100" height="80" relative="1" as="geometry">
            <mxPoint x="10" y="50" as="offset" />
          </mxGeometry>
        </mxCell>
        <mxCell id="mA-d0tsaracJnLabo0LD-11" style="edgeStyle=orthogonalEdgeStyle;curved=1;rounded=0;orthogonalLoop=1;jettySize=auto;html=1;" edge="1" parent="1" source="mA-d0tsaracJnLabo0LD-9" target="mA-d0tsaracJnLabo0LD-2">
          <mxGeometry relative="1" as="geometry" />
        </mxCell>
        <mxCell id="mA-d0tsaracJnLabo0LD-12" value="&lt;div&gt;&amp;lt;&amp;lt;protocol&amp;gt;&amp;gt;&lt;/div&gt;&lt;div&gt;HTTP/HTTPS&lt;br&gt;&lt;/div&gt;" style="edgeLabel;html=1;align=center;verticalAlign=middle;resizable=0;points=[];" vertex="1" connectable="0" parent="mA-d0tsaracJnLabo0LD-11">
          <mxGeometry x="0.2711" y="-25" relative="1" as="geometry">
            <mxPoint as="offset" />
          </mxGeometry>
        </mxCell>
        <mxCell id="mA-d0tsaracJnLabo0LD-9" value="&lt;div&gt;&amp;lt;&amp;lt;device&amp;gt;&amp;gt;&lt;/div&gt;&lt;div&gt;Amazon AWS S3&lt;br&gt;&lt;/div&gt;" style="verticalAlign=top;align=left;shape=cube;size=10;direction=south;fontStyle=0;html=1;boundedLbl=1;spacingLeft=5;" vertex="1" parent="1">
          <mxGeometry x="330" y="530" width="130" height="140" as="geometry" />
        </mxCell>
        <mxCell id="mA-d0tsaracJnLabo0LD-10" value="&lt;div&gt;&amp;lt;&amp;lt;component&amp;gt;&amp;gt;&lt;/div&gt;&lt;div&gt;S3 Static&lt;/div&gt;&lt;div&gt;&amp;nbsp;Website&lt;br&gt;&lt;/div&gt;" style="verticalAlign=top;align=center;shape=cube;size=10;direction=south;html=1;boundedLbl=1;spacingLeft=5;" vertex="1" parent="mA-d0tsaracJnLabo0LD-9">
          <mxGeometry width="100" height="80" relative="1" as="geometry">
            <mxPoint x="10" y="50" as="offset" />
          </mxGeometry>
        </mxCell>
        <mxCell id="mA-d0tsaracJnLabo0LD-13" value="&lt;div&gt;&amp;lt;&amp;lt;device&amp;gt;&amp;gt;&lt;/div&gt;&lt;div&gt;Computador&lt;br&gt;&lt;/div&gt;" style="verticalAlign=top;align=left;shape=cube;size=10;direction=south;fontStyle=0;html=1;boundedLbl=1;spacingLeft=5;" vertex="1" parent="1">
          <mxGeometry x="600" y="620" width="190" height="140" as="geometry" />
        </mxCell>
        <mxCell id="mA-d0tsaracJnLabo0LD-15" style="edgeStyle=orthogonalEdgeStyle;curved=1;rounded=0;orthogonalLoop=1;jettySize=auto;html=1;entryX=0;entryY=0;entryDx=65;entryDy=0;entryPerimeter=0;" edge="1" parent="mA-d0tsaracJnLabo0LD-13" target="mA-d0tsaracJnLabo0LD-9">
          <mxGeometry relative="1" as="geometry">
            <mxPoint x="11.875" y="90" as="sourcePoint" />
          </mxGeometry>
        </mxCell>
        <mxCell id="mA-d0tsaracJnLabo0LD-17" value="&lt;div&gt;&amp;lt;&amp;lt;protocol&amp;gt;&amp;gt;&lt;/div&gt;&lt;div&gt;HTTP/HTTPS&lt;br&gt;&lt;/div&gt;" style="edgeLabel;html=1;align=center;verticalAlign=middle;resizable=0;points=[];" vertex="1" connectable="0" parent="mA-d0tsaracJnLabo0LD-15">
          <mxGeometry x="0.1899" y="3" relative="1" as="geometry">
            <mxPoint as="offset" />
          </mxGeometry>
        </mxCell>
        <mxCell id="mA-d0tsaracJnLabo0LD-16" value="&amp;lt;&amp;lt;component&amp;gt;&amp;gt;&lt;br&gt;&lt;b&gt;Web Browser&lt;/b&gt;&lt;br&gt;&lt;b&gt;&lt;/b&gt;" style="html=1;align=center;verticalAlign=middle;dashed=0;" vertex="1" parent="mA-d0tsaracJnLabo0LD-13">
          <mxGeometry x="11.88" y="75" width="158.13" height="45" as="geometry" />
        </mxCell>
      </root>
    </mxGraphModel>
  </diagram>
</mxfile>
